# xmcd
#
# Track frame offsets:
#	150
#	6539
#	26557
#	46798
#	58643
#	80868
#	100051
#	125212
#	144185
#	173383
#	196055
#	221812
#	242033
#
# Disc length: 3403 seconds
#
# Revision: 1
# Processed by: cddbd v1.5.2PL0 Copyright (c) Steve Scherf et al.
# Submitted via: audiograbber 1.83.01
#
DISCID=b00d490d
DTITLE=Eric Soans - Tu Ru Ru Tu Tu
DYEAR=2009
DGENRE=Christian Rock
TTITLE0=Eric Soans - Introduction
TTITLE1=Alvin Noronha, Navin Dias, Prakash D'Souza, Pravin Carvalho - Mandir So
TTITLE1=miya Thujen
TTITLE2=Adolph Jayatilak - Somiya Konna Lagin Vossun Hamin
TTITLE3=Mervin Quadris, Prakash D'Souza - Alleluia
TTITLE4=Sangeeta BalaChandra - Hi Kannik Betaunk Bapa
TTITLE5=Traditional - Bhavadthacho Ghut
TTITLE6=Vijay Vaz - Kalzanth Mujhe Ye Somiya
TTITLE7=Harriet Braganza, meera Crasta - Kalzanth Ailya Somiya Argan
TTITLE8=Naveen Dias - Ye Mujhya Somiya
TTITLE9=Alvin Noronha - Jezu Jivanth Zala
TTITLE10=Harriet Braganza, Ivy D'Souza - Sant Annache Udarim San Jochimache Gah
TTITLE10=ri
TTITLE11=Sangeeta BalaChandra - Somiya Konna Lagin Voccun hami
TTITLE12=Eric Soans, Kishore Gonsalves, Pravin Carvalho, Navin Dias - Thun Zaun
TTITLE12=Asai Khadap
EXTD=
EXTT0=
EXTT1=
EXTT2=
EXTT3=
EXTT4=
EXTT5=
EXTT6=
EXTT7=
EXTT8=
EXTT9=
EXTT10=
EXTT11=
EXTT12=
PLAYORDER=
